<svg width="24" height="24" viewBox="0 0 24 24" fill="none" xmlns="http://www.w3.org/2000/svg">
<path fill-rule="evenodd" clip-rule="evenodd" d="M12 6C9.60438 6 7.53466 7.40395 6.5725 9.43835C6.41724 9.76665 6.0962 9.98496 5.73382 10.0087C3.64927 10.1451 2 11.8804 2 14C2 16.2091 3.79086 18 6 18H7C7.55228 18 8 18.4477 8 19C8 19.5523 7.55228 20 7 20H6C2.68629 20 0 17.3137 0 14C0 11.018 2.17484 8.54474 5.02547 8.07885C6.39612 5.64586 9.00498 4 12 4C15.7489 4 18.8942 6.57778 19.7624 10.0578C22.162 10.4249 24 12.4978 24 15C24 17.7614 21.7614 20 19 20H17C16.4477 20 16 19.5523 16 19C16 18.4477 16.4477 18 17 18H19C20.6569 18 22 16.6569 22 15C22 13.3431 20.6569 12 19 12C18.9821 12 18.9643 12.0002 18.9466 12.0005C18.4424 12.0092 18.0106 11.6413 17.9393 11.1421C17.5237 8.23512 15.022 6 12 6Z" fill="#3C3E44"/>
<path fill-rule="evenodd" clip-rule="evenodd" d="M11.2929 9.29289C11.6834 8.90237 12.3166 8.90237 12.7071 9.29289L15.7071 12.2929C16.0976 12.6834 16.0976 13.3166 15.7071 13.7071C15.3166 14.0976 14.6834 14.0976 14.2929 13.7071L13 12.4142L13 18C13 18.5523 12.5523 19 12 19C11.4477 19 11 18.5523 11 18L11 12.4142L9.70711 13.7071C9.31658 14.0976 8.68342 14.0976 8.29289 13.7071C7.90237 13.3166 7.90237 12.6834 8.29289 12.2929L11.2929 9.29289Z" fill="#3C3E44"/>
</svg>
