<svg width="24" height="24" viewBox="0 0 24 24" fill="none" xmlns="http://www.w3.org/2000/svg">
<path fill-rule="evenodd" clip-rule="evenodd" d="M12.4332 4.09871C12.7797 4.26523 13 4.6156 13 5.00001V19C13 19.3844 12.7797 19.7348 12.4332 19.9013C12.0867 20.0678 11.6755 20.021 11.3753 19.7809L6.64922 16H3C2.44772 16 2 15.5523 2 15V9.00001C2 8.44772 2.44772 8.00001 3 8.00001H6.64922L11.3753 4.21914C11.6755 3.979 12.0867 3.93219 12.4332 4.09871ZM11 7.08063L7.62469 9.78088C7.44738 9.92273 7.22707 10 7 10H4V14H7C7.22707 14 7.44738 14.0773 7.62469 14.2191L11 16.9194V7.08063Z" fill="#3C3E44"/>
<path fill-rule="evenodd" clip-rule="evenodd" d="M17.363 4.22272C17.7536 3.83225 18.3868 3.83235 18.7773 4.22293C20.8394 6.28574 21.9979 9.08313 21.9979 11.9999C21.9979 14.9167 20.8394 17.7141 18.7773 19.7769C18.3868 20.1675 17.7536 20.1676 17.363 19.7771C16.9725 19.3867 16.9724 18.7535 17.3628 18.3629C19.0501 16.6752 19.9979 14.3864 19.9979 11.9999C19.9979 9.61345 19.0501 7.32468 17.3628 5.63693C16.9724 5.24635 16.9725 4.61318 17.363 4.22272ZM14.833 7.75272C15.2236 7.36225 15.8568 7.36235 16.2473 7.75293C17.3721 8.8781 18.004 10.4039 18.004 11.9949C18.004 13.5859 17.3721 15.1118 16.2473 16.2369C15.8568 16.6275 15.2236 16.6276 14.833 16.2371C14.4425 15.8467 14.4424 15.2135 14.8328 14.8229C15.5827 14.0728 16.004 13.0556 16.004 11.9949C16.004 10.9343 15.5827 9.91704 14.8328 9.16693C14.4424 8.77635 14.4425 8.14318 14.833 7.75272Z" fill="#3C3E44"/>
</svg>
